<svg xmlns="http://www.w3.org/2000/svg" width="64" height="64" viewBox="0 0 64 64" fill="none" stroke="currentColor" stroke-width="2.5" stroke-linecap="round" stroke-linejoin="round">
  <path d="M5.333 25.333c0-8.1 6.567-14.667 14.667-14.667 4.054 0 7.72 1.644 10.373 4.302.394.394.946.394 1.254 0C34.28 12.31 37.946 10.667 42 10.667c8.1 0 14.667 6.567 14.667 14.667 0 6.106-4 10.667-8 14.667l-14.643 14.169c-1.182 1.136-3.06 1.136-4.048.051L13.333 40C9.333 36 5.333 31.44 5.333 25.333"/>
  <path d="M8.587 34.667H25.333l1.334-2.667 5.333 12 5.333-18.667 4 9.334h14.054"/>
</svg>
